<svg width="441" height="102" viewBox="0 0 441 102" fill="none" xmlns="http://www.w3.org/2000/svg">
<g filter="url(#filter0_d_6_103)">
<path d="M4 22C4 9.84973 13.8497 0 26 0H415C427.15 0 437 9.84974 437 22V72C437 84.1503 427.15 94 415 94H26C13.8497 94 4 84.1503 4 72V22Z" fill="white"/>
<path d="M4.5 22C4.5 10.1259 14.1259 0.5 26 0.5H415C426.874 0.5 436.5 10.1259 436.5 22V72C436.5 83.8741 426.874 93.5 415 93.5H26C14.1259 93.5 4.5 83.8741 4.5 72V22Z" stroke="#403131"/>
</g>
<defs>
<filter id="filter0_d_6_103" x="0" y="0" width="441" height="102" filterUnits="userSpaceOnUse" color-interpolation-filters="sRGB">
<feFlood flood-opacity="0" result="BackgroundImageFix"/>
<feColorMatrix in="SourceAlpha" type="matrix" values="0 0 0 0 0 0 0 0 0 0 0 0 0 0 0 0 0 0 127 0" result="hardAlpha"/>
<feOffset dy="4"/>
<feGaussianBlur stdDeviation="2"/>
<feComposite in2="hardAlpha" operator="out"/>
<feColorMatrix type="matrix" values="0 0 0 0 0 0 0 0 0 0 0 0 0 0 0 0 0 0 0.25 0"/>
<feBlend mode="normal" in2="BackgroundImageFix" result="effect1_dropShadow_6_103"/>
<feBlend mode="normal" in="SourceGraphic" in2="effect1_dropShadow_6_103" result="shape"/>
</filter>
</defs>
</svg>
