<svg width="1265" height="1070" viewBox="0 0 1265 1070" fill="none" xmlns="http://www.w3.org/2000/svg">
<g filter="url(#filter0_d_220_1159)">
<path d="M4 49C4 21.938 25.938 0 53 0H1212C1239.06 0 1261 21.938 1261 49V1013C1261 1040.06 1239.06 1062 1212 1062H53C25.938 1062 4 1040.06 4 1013V49Z" fill="url(#paint0_linear_220_1159)" shape-rendering="crispEdges"/>
<path d="M4.5 49C4.5 22.2142 26.2142 0.5 53 0.5H1212C1238.79 0.5 1260.5 22.2142 1260.5 49V1013C1260.5 1039.79 1238.79 1061.5 1212 1061.5H53C26.2142 1061.5 4.5 1039.79 4.5 1013V49Z" stroke="#D9D9D9" shape-rendering="crispEdges"/>
</g>
<defs>
<filter id="filter0_d_220_1159" x="0" y="0" width="1265" height="1070" filterUnits="userSpaceOnUse" color-interpolation-filters="sRGB">
<feFlood flood-opacity="0" result="BackgroundImageFix"/>
<feColorMatrix in="SourceAlpha" type="matrix" values="0 0 0 0 0 0 0 0 0 0 0 0 0 0 0 0 0 0 127 0" result="hardAlpha"/>
<feOffset dy="4"/>
<feGaussianBlur stdDeviation="2"/>
<feComposite in2="hardAlpha" operator="out"/>
<feColorMatrix type="matrix" values="0 0 0 0 0 0 0 0 0 0 0 0 0 0 0 0 0 0 0.25 0"/>
<feBlend mode="normal" in2="BackgroundImageFix" result="effect1_dropShadow_220_1159"/>
<feBlend mode="normal" in="SourceGraphic" in2="effect1_dropShadow_220_1159" result="shape"/>
</filter>
<linearGradient id="paint0_linear_220_1159" x1="632.5" y1="0" x2="632.5" y2="1062" gradientUnits="userSpaceOnUse">
<stop stop-color="#E8D6BF"/>
<stop offset="1" stop-color="white" stop-opacity="0"/>
</linearGradient>
</defs>
</svg>
